# xmcd
#
# Track frame offsets:
#	150
#	15104
#	35495
#	51736
#	64596
#	81736
#	85173
#	110456
#	116074
#	130863
#	143785
#	163112
#	176490
#	197493
#	218837
#	234263
#
# Disc length: 3253 seconds
#
# Revision: 0
# Processed by: cddbd v1.4PL0 Copyright (c) Steve Scherf et al.
# Submitted via: audiograbber 1.81.02
#
DISCID=db0cb310
DTITLE=Johnny Dowd - Pictures from Life's Other Side
DYEAR=1900
DGENRE=
TTITLE0=A Picture From Life's Other Side
TTITLE1=Worried Mind
TTITLE2=Ballad Of Lonnie Wolf
TTITLE3=Hope You Don't Mind
TTITLE4=God Created Woman
TTITLE5=Blood Evidence
TTITLE6=The Girl Who Made Me Sick
TTITLE7=Greasy Hands
TTITLE8=Vietnam
TTITLE9=Just Because
TTITLE10=No Woman's Flesh But Hers
TTITLE11=Bad Memories
TTITLE12=Mystery Woman
TTITLE13=Butcher's Son
TTITLE14=Wish I'd Been Honest
TTITLE15=You're Carrying A Coffin
EXTD=
EXTT0=
EXTT1=
EXTT2=
EXTT3=
EXTT4=
EXTT5=
EXTT6=
EXTT7=
EXTT8=
EXTT9=
EXTT10=
EXTT11=
EXTT12=
EXTT13=
EXTT14=
EXTT15=
PLAYORDER=
